<svg width="34" height="34" viewBox="0 0 34 34" fill="none" xmlns="http://www.w3.org/2000/svg">
<path d="M13.0758 16.4242C12.3436 15.6919 11.1564 15.6919 10.4242 16.4242C9.69194 17.1564 9.69194 18.3436 10.4242 19.0758L13.0758 16.4242ZM14.75 20.75L13.4242 22.0758C14.1564 22.8081 15.3436 22.8081 16.0758 22.0758L14.75 20.75ZM23.5758 14.5758C24.3081 13.8436 24.3081 12.6564 23.5758 11.9242C22.8436 11.1919 21.6564 11.1919 20.9242 11.9242L23.5758 14.5758ZM30.125 17C30.125 24.2487 24.2487 30.125 17 30.125V33.875C26.3198 33.875 33.875 26.3198 33.875 17H30.125ZM17 30.125C9.75126 30.125 3.875 24.2487 3.875 17H0.125C0.125 26.3198 7.68019 33.875 17 33.875V30.125ZM3.875 17C3.875 9.75126 9.75126 3.875 17 3.875V0.125C7.68019 0.125 0.125 7.68019 0.125 17H3.875ZM17 3.875C24.2487 3.875 30.125 9.75126 30.125 17H33.875C33.875 7.68019 26.3198 0.125 17 0.125V3.875ZM10.4242 19.0758L13.4242 22.0758L16.0758 19.4242L13.0758 16.4242L10.4242 19.0758ZM16.0758 22.0758L23.5758 14.5758L20.9242 11.9242L13.4242 19.4242L16.0758 22.0758Z" fill="#1C274C"/>
</svg>
