<svg width="30" height="30" viewBox="0 0 30 30" fill="none" xmlns="http://www.w3.org/2000/svg">
<path d="M26.5999 8.00006L14.6749 19.925C13.4874 21.1125 9.96234 21.6625 9.17484 20.875C8.38734 20.0875 8.92484 16.5625 10.1123 15.375L22.0499 3.43753C22.3443 3.11635 22.7006 2.85817 23.0976 2.67855C23.4945 2.49892 23.9238 2.40155 24.3594 2.39238C24.7949 2.38321 25.2279 2.46239 25.632 2.62515C26.0361 2.78791 26.4031 3.03091 26.7108 3.33941C27.0184 3.64791 27.2604 4.01554 27.422 4.42011C27.5836 4.8247 27.6618 5.25782 27.6514 5.69339C27.641 6.12895 27.5424 6.55794 27.3618 6.95437C27.181 7.35081 26.9219 7.70655 26.5999 8.00006Z" stroke="black" stroke-width="3" stroke-linecap="round" stroke-linejoin="round"/>
<path d="M13.75 5H7.5C6.17391 5 4.90222 5.52677 3.96454 6.46446C3.02686 7.40215 2.5 8.67391 2.5 10V22.5C2.5 23.8261 3.02686 25.0979 3.96454 26.0355C4.90222 26.9732 6.17391 27.5 7.5 27.5H21.25C24.0125 27.5 25 25.25 25 22.5V16.25" stroke="black" stroke-width="3" stroke-linecap="round" stroke-linejoin="round"/>
</svg>
