<svg width="512" height="512" viewBox="0 0 512 512" fill="none" xmlns="http://www.w3.org/2000/svg">
<rect width="512" height="512" rx="150" fill="white"/>
<g clip-path="url(#clip0_36_23)">
<path d="M156 106C208.725 106 253.275 140.975 267.728 188.991C269.61 195.243 277.829 197.926 283.067 194.028C301.102 180.609 323.463 172.667 347.667 172.667H414.667C419.085 172.667 422.667 176.248 422.667 180.667V214.333C422.667 274.167 374.167 322.667 314.333 322.667H280.667C276.248 322.667 272.667 326.248 272.667 330.667V398C272.667 402.418 269.085 406 264.667 406H247.333C242.915 406 239.333 402.418 239.333 398V280.667C239.333 276.248 235.752 272.667 231.333 272.667H206C141.567 272.667 89.3333 220.433 89.3333 156V114C89.3333 109.582 92.915 106 97.3333 106H156ZM389.333 214C389.333 209.582 385.752 206 381.333 206H347.667C306.25 206 272.667 239.583 272.667 281V281.333C272.667 285.752 276.248 289.333 280.667 289.333H314.333C355.75 289.333 389.333 255.75 389.333 214.333V214ZM156 139.333H130.667C126.248 139.333 122.667 142.915 122.667 147.333V156C122.667 202.017 159.983 239.333 206 239.333H231.333C235.752 239.333 239.333 235.752 239.333 231.333V222.667C239.333 176.65 202.017 139.333 156 139.333Z" fill="#00AF20"/>
</g>
<defs>
<clipPath id="clip0_36_23">
<rect width="400" height="400" fill="white" transform="translate(56 56)"/>
</clipPath>
</defs>
</svg>
