<svg width="35" height="35" viewBox="0 0 35 35" fill="none" xmlns="http://www.w3.org/2000/svg">
<path d="M18.9582 2.91667C14.9311 2.91667 11.6665 6.18127 11.6665 10.2083C11.6665 11.0137 12.3194 11.6667 13.1248 11.6667C13.9302 11.6667 14.5832 11.0137 14.5832 10.2083C14.5832 7.7921 16.542 5.83334 18.9582 5.83334H24.7915C27.2078 5.83334 29.1665 7.7921 29.1665 10.2083V24.7917C29.1665 27.208 27.2078 29.1667 24.7915 29.1667H18.9582C16.542 29.1667 14.5832 27.208 14.5832 24.7917C14.5832 23.9862 13.9302 23.3333 13.1248 23.3333C12.3194 23.3333 11.6665 23.9862 11.6665 24.7917C11.6665 28.8187 14.9311 32.0833 18.9582 32.0833H24.7915C28.8185 32.0833 32.0832 28.8187 32.0832 24.7917V10.2083C32.0832 6.18127 28.8185 2.91667 24.7915 2.91667H18.9582Z" fill="black"/>
<path d="M5.45837 19.2501C4.65294 19.2501 4.00004 18.5972 4.00004 17.7918C4.00004 16.9863 4.65294 16.3334 5.45837 16.3334V19.2501Z" fill="black"/>
<path d="M17.1196 19.2914C16.9898 19.4515 16.8654 19.6068 16.7478 19.7551C16.3898 20.2068 16.0867 20.6033 15.8726 20.8876C15.7655 21.0298 15.6805 21.1443 15.6218 21.2238L15.5538 21.3161L15.5356 21.341L15.5292 21.3499C15.5291 21.35 15.5285 21.3509 16.7083 22.2081L15.5292 21.3499C15.0558 22.0015 15.1995 22.9145 15.8511 23.3879C16.5026 23.8613 17.4146 23.7169 17.888 23.0653L17.8921 23.0597L17.9071 23.0393L17.968 22.9565C18.0218 22.8835 18.1015 22.7763 18.2027 22.6419C18.4053 22.3728 18.6933 21.996 19.0332 21.5673C19.7204 20.7006 20.5908 19.6588 21.3853 18.8643L22.4165 17.8331L21.3853 16.8019C20.5908 16.0074 19.7204 14.9655 19.0332 14.0989C18.6933 13.6701 18.4053 13.2933 18.2027 13.0242C18.1015 12.8898 18.0218 12.7826 17.968 12.7096L17.9071 12.6268L17.8921 12.6064L17.8887 12.6017C17.4153 11.9503 16.5026 11.8049 15.8511 12.2783C15.1995 12.7516 15.055 13.6637 15.5285 14.3153L16.7083 13.4581C15.5285 14.3153 15.5284 14.3151 15.5285 14.3153L15.5356 14.325L15.5538 14.35L15.6218 14.4423C15.6805 14.5219 15.7655 14.6363 15.8726 14.7786C16.0867 15.0628 16.3898 15.4593 16.7478 15.911C16.8654 16.0593 16.9898 16.2146 17.1196 16.3747L5.04162 16.3747V19.2914L17.1196 19.2914Z" fill="black"/>
</svg>
