<svg width="35" height="35" viewBox="0 0 35 35" fill="none" xmlns="http://www.w3.org/2000/svg">
<path d="M18.9582 2.91666C14.9312 2.91666 11.6666 6.18126 11.6666 10.2083C11.6666 11.0137 12.3195 11.6667 13.1249 11.6667C13.9303 11.6667 14.5832 11.0137 14.5832 10.2083C14.5832 7.79209 16.5421 5.83333 18.9582 5.83333H24.7916C27.2079 5.83333 29.1666 7.79209 29.1666 10.2083V24.7917C29.1666 27.208 27.2079 29.1667 24.7916 29.1667H18.9582C16.5421 29.1667 14.5832 27.208 14.5832 24.7917C14.5832 23.9862 13.9303 23.3333 13.1249 23.3333C12.3195 23.3333 11.6666 23.9862 11.6666 24.7917C11.6666 28.8187 14.9312 32.0833 18.9582 32.0833H24.7916C28.8186 32.0833 32.0832 28.8187 32.0832 24.7917V10.2083C32.0832 6.18126 28.8186 2.91666 24.7916 2.91666H18.9582Z" fill="#E61111"/>
<path d="M20.4165 16.0417C21.2219 16.0417 21.8748 16.6946 21.8748 17.5C21.8748 18.3054 21.2219 18.9583 20.4165 18.9583V16.0417Z" fill="#E61111"/>
<path d="M8.3385 16.0417C8.46832 15.8815 8.5927 15.7262 8.71036 15.5779C9.06836 15.1263 9.37146 14.7298 9.58549 14.4455C9.6926 14.3033 9.77765 14.1888 9.83638 14.1093L9.90429 14.0169L9.92249 13.992L9.92894 13.9832C9.929 13.9831 9.92967 13.9822 8.74986 13.125L9.92894 13.9832C10.4023 13.3316 10.2586 12.4186 9.60704 11.9452C8.95549 11.4718 8.04355 11.6162 7.57012 12.2677L7.566 12.2734L7.55107 12.2938L7.49017 12.3766C7.4363 12.4495 7.35664 12.5567 7.25544 12.6912C7.05283 12.9602 6.76482 13.3371 6.42493 13.7658C5.73771 14.6325 4.86731 15.6743 4.07283 16.4688L3.04163 17.5L4.07283 18.5312C4.86731 19.3257 5.73771 20.3675 6.42493 21.2342C6.76482 21.663 7.05283 22.0398 7.25544 22.3089C7.35664 22.4433 7.4363 22.5505 7.49017 22.6234L7.55107 22.7063L7.566 22.7267L7.5694 22.7313C8.04283 23.3828 8.95549 23.5282 9.60704 23.0548C10.2586 22.5814 10.4031 21.6694 9.92967 21.0178L8.74986 21.875C9.92967 21.0178 9.92974 21.0179 9.92967 21.0178L9.92249 21.008L9.90429 20.9831L9.83638 20.8908C9.77765 20.8111 9.6926 20.6968 9.58549 20.5545C9.37146 20.2703 9.06836 19.8737 8.71036 19.4221C8.5927 19.2738 8.46832 19.1185 8.3385 18.9583H20.4165V16.0417H8.3385Z" fill="#E61111"/>
</svg>
