<svg width="35" height="35" viewBox="0 0 35 35" fill="none" xmlns="http://www.w3.org/2000/svg">
<path d="M13.125 11.6667H21.875M13.125 17.5H21.875M13.125 23.3333H17.5M11.9584 30.625H23.0417C24.6752 30.625 25.492 30.625 26.1159 30.3071C26.6646 30.0275 27.1109 29.5813 27.3904 29.0325C27.7084 28.4086 27.7084 27.5918 27.7084 25.9583V9.04167C27.7084 7.40819 27.7084 6.59143 27.3904 5.96753C27.1109 5.41871 26.6646 4.97252 26.1159 4.6929C25.492 4.375 24.6752 4.375 23.0417 4.375H11.9584C10.3249 4.375 9.50812 4.375 8.88422 4.6929C8.3354 4.97252 7.88921 5.41871 7.60959 5.96753C7.29169 6.59143 7.29169 7.40817 7.29169 9.04167V25.9583C7.29169 27.5918 7.29169 28.4086 7.60959 29.0325C7.88921 29.5813 8.3354 30.0275 8.88422 30.3071C9.50812 30.625 10.3249 30.625 11.9584 30.625Z" stroke="black" stroke-width="3" stroke-linecap="round" stroke-linejoin="round"/>
</svg>
