<svg width="60" height="60" viewBox="0 0 60 60" fill="none" xmlns="http://www.w3.org/2000/svg">
<path d="M43.8227 19.425C43.6477 19.4 43.4727 19.4 43.2977 19.425C39.4227 19.3 36.3477 16.125 36.3477 12.225C36.3477 8.25 39.5727 5 43.5727 5C47.5477 5 50.7977 8.225 50.7977 12.225C50.7727 16.125 47.6977 19.3 43.8227 19.425Z" fill="black"/>
<path d="M51.979 36.751C49.179 38.626 45.254 39.326 41.629 38.851C42.579 36.801 43.079 34.526 43.104 32.126C43.104 29.626 42.554 27.251 41.504 25.176C45.204 24.676 49.129 25.376 51.954 27.251C55.904 29.851 55.904 34.126 51.979 36.751Z" fill="black"/>
<path d="M16.1004 19.425C16.2754 19.4 16.4504 19.4 16.6254 19.425C20.5004 19.3 23.5754 16.125 23.5754 12.225C23.5754 8.225 20.3504 5 16.3504 5C12.3754 5 9.1504 8.225 9.1504 12.225C9.1504 16.125 12.2254 19.3 16.1004 19.425Z" fill="black"/>
<path d="M16.3777 32.1265C16.3777 34.5515 16.9027 36.8515 17.8527 38.9265C14.3277 39.3015 10.6527 38.5515 7.95273 36.7765C4.00273 34.1515 4.00273 29.8765 7.95273 27.2515C10.6277 25.4515 14.4027 24.7265 17.9527 25.1265C16.9277 27.2265 16.3777 29.6015 16.3777 32.1265Z" fill="black"/>
<path d="M30.302 39.675C30.102 39.65 29.877 39.65 29.652 39.675C25.052 39.525 21.377 35.75 21.377 31.1C21.402 26.35 25.227 22.5 30.002 22.5C34.752 22.5 38.602 26.35 38.602 31.1C38.577 35.75 34.927 39.525 30.302 39.675Z" fill="black"/>
<path d="M22.1769 44.8515C18.4019 47.3765 18.4019 51.5265 22.1769 54.0265C26.477 56.9015 33.527 56.9015 37.827 54.0265C41.602 51.5015 41.602 47.3515 37.827 44.8515C33.552 41.9765 26.502 41.9765 22.1769 44.8515Z" fill="black"/>
</svg>
