<svg width="45" height="41" viewBox="0 0 45 41" fill="none" xmlns="http://www.w3.org/2000/svg">
<path d="M9 0C15.4826 0 21.0497 3.91638 23.4658 9.51227C24.1128 11.0109 26.2423 11.7063 27.6616 10.9C29.7903 9.69069 32.2525 9 34.875 9H43C44.1046 9 45 9.89543 45 11V14.625C45 22.7025 38.4525 29.25 30.375 29.25H26.75C25.6454 29.25 24.75 30.1454 24.75 31.25V38.5C24.75 39.6046 23.8546 40.5 22.75 40.5H22.25C21.1454 40.5 20.25 39.6046 20.25 38.5V24.5C20.25 23.3954 19.3546 22.5 18.25 22.5H15.75C7.0515 22.5 0 15.4485 0 6.75V2C0 0.895431 0.895431 0 2 0H9ZM40.5 14.625C40.5 14.0037 39.9963 13.5 39.375 13.5H34.875C29.2838 13.5 24.75 18.0338 24.75 23.625V23.625C24.75 24.2463 25.2537 24.75 25.875 24.75H30.375C35.9662 24.75 40.5 20.2162 40.5 14.625V14.625ZM9 4.5H6.5C5.39543 4.5 4.5 5.39543 4.5 6.5V6.75C4.5 12.9622 9.53775 18 15.75 18H18.25C19.3546 18 20.25 17.1046 20.25 16V15.75C20.25 9.53775 15.2122 4.5 9 4.5Z" fill="#00AF20"/>
</svg>
