<svg width="30" height="30" viewBox="0 0 30 30" fill="none" xmlns="http://www.w3.org/2000/svg">
<path fill-rule="evenodd" clip-rule="evenodd" d="M15 3.4375C12.4112 3.4375 10.3125 5.53616 10.3125 8.125C10.3125 10.7138 12.4112 12.8125 15 12.8125C17.5889 12.8125 19.6875 10.7138 19.6875 8.125C19.6875 5.53616 17.5889 3.4375 15 3.4375ZM8.4375 8.125C8.4375 4.50063 11.3756 1.5625 15 1.5625C18.6244 1.5625 21.5625 4.50063 21.5625 8.125C21.5625 11.7494 18.6244 14.6875 15 14.6875C11.3756 14.6875 8.4375 11.7494 8.4375 8.125Z" fill="black"/>
<path fill-rule="evenodd" clip-rule="evenodd" d="M5.3125 23.2142C5.3125 19.5406 8.29061 16.5625 11.9643 16.5625H18.0358C21.7094 16.5625 24.6875 19.5406 24.6875 23.2142C24.6875 26.099 22.349 28.4375 19.4642 28.4375H10.5357C7.65101 28.4375 5.3125 26.099 5.3125 23.2142ZM11.9643 18.4375C9.32614 18.4375 7.1875 20.5761 7.1875 23.2142C7.1875 25.0635 8.68655 26.5625 10.5357 26.5625H19.4642C21.3135 26.5625 22.8125 25.0635 22.8125 23.2142C22.8125 20.5761 20.6739 18.4375 18.0358 18.4375H11.9643Z" fill="black"/>
</svg>
