<svg width="30" height="30" viewBox="0 0 30 30" fill="none" xmlns="http://www.w3.org/2000/svg">
<path fill-rule="evenodd" clip-rule="evenodd" d="M17.7443 15.2573C17.7443 16.8364 16.4961 18.1165 14.9566 18.1165C13.417 18.1165 12.169 16.8364 12.169 15.2573C12.169 13.6783 13.417 12.3982 14.9566 12.3982C16.4961 12.3982 17.7443 13.6783 17.7443 15.2573Z" stroke="black" stroke-width="2.28732" stroke-linecap="round" stroke-linejoin="round"/>
<path fill-rule="evenodd" clip-rule="evenodd" d="M8.35816 23.9779L4.85266 16.4197C4.38245 15.6726 4.38245 14.7122 4.85266 13.9651L8.33586 6.52559C8.86905 5.71382 9.76654 5.23393 10.7207 5.25041H14.9566H19.1925C20.1466 5.23393 21.0441 5.71382 21.5773 6.52559L25.0536 13.9594C25.5238 14.7065 25.5238 15.6669 25.0536 16.414L21.555 23.9779C21.0222 24.798 20.1184 25.2831 19.1576 25.2645H10.7542C9.79387 25.2827 8.89075 24.7976 8.35816 23.9779Z" stroke="black" stroke-width="2.28732" stroke-linecap="round" stroke-linejoin="round"/>
</svg>
