<svg width="19" height="18" viewBox="0 0 19 18" fill="none" xmlns="http://www.w3.org/2000/svg">
<path d="M9.5 1.5L11.1964 5.80127C11.353 6.19832 11.4312 6.39685 11.5512 6.56425C11.6574 6.71263 11.7873 6.84255 11.9358 6.94883C12.1032 7.06871 12.3017 7.14701 12.6987 7.3036L17 9L12.6987 10.6964C12.3017 10.853 12.1032 10.9312 11.9358 11.0512C11.7873 11.1574 11.6574 11.2873 11.5512 11.4358C11.4312 11.6032 11.353 11.8017 11.1964 12.1987L9.5 16.5L7.8036 12.1987C7.64701 11.8017 7.56871 11.6032 7.44883 11.4358C7.34255 11.2873 7.21263 11.1574 7.06425 11.0512C6.89685 10.9312 6.69832 10.853 6.30127 10.6964L2 9L6.30127 7.3036C6.69832 7.14701 6.89685 7.06871 7.06425 6.94883C7.21263 6.84255 7.34255 6.71263 7.44883 6.56425C7.56871 6.39685 7.64701 6.19832 7.8036 5.80127L9.5 1.5Z" stroke="#33BF4D" stroke-width="3" stroke-linecap="round" stroke-linejoin="round"/>
</svg>
